<?xml version="1.0" encoding="UTF-8" standalone="no"?>
<svg
   xmlns:dc="http://purl.org/dc/elements/1.1/"
   xmlns:cc="http://creativecommons.org/ns#"
   xmlns:rdf="http://www.w3.org/1999/02/22-rdf-syntax-ns#"
   xmlns:svg="http://www.w3.org/2000/svg"
   xmlns="http://www.w3.org/2000/svg"
   xmlns:sodipodi="http://sodipodi.sourceforge.net/DTD/sodipodi-0.dtd"
   xmlns:inkscape="http://www.inkscape.org/namespaces/inkscape"
   version="1.1"
   x="0px"
   y="0px"
   viewBox="0 0 1000 1000"
   enable-background="new 0 0 1000 1000"
   xml:space="preserve"
   id="svg898"
   sodipodi:docname="icon_creater_custom.svg"
   inkscape:version="1.0.1 (3bc2e813f5, 2020-09-07)"><defs
   id="defs902">
</defs><sodipodi:namedview
   pagecolor="#ffffff"
   bordercolor="#666666"
   borderopacity="1"
   objecttolerance="10"
   gridtolerance="10"
   guidetolerance="10"
   inkscape:pageopacity="0"
   inkscape:pageshadow="2"
   inkscape:window-width="1989"
   inkscape:window-height="1113"
   id="namedview900"
   showgrid="false"
   inkscape:zoom="0.944"
   inkscape:cx="584.69484"
   inkscape:cy="538.74144"
   inkscape:window-x="314"
   inkscape:window-y="57"
   inkscape:window-maximized="0"
   inkscape:current-layer="svg898"
   inkscape:document-rotation="0"><inkscape:grid
     type="xygrid"
     id="grid1447" /></sodipodi:namedview>
<metadata
   id="metadata888"> Svg Vector Icons : http://www.onlinewebfonts.com/icon <rdf:RDF><cc:Work
     rdf:about=""><dc:format>image/svg+xml</dc:format><dc:type
       rdf:resource="http://purl.org/dc/dcmitype/StillImage" /></cc:Work></rdf:RDF></metadata>
<g
   id="g896"
   style="fill:#808080;fill-opacity:1"><g
     transform="translate(0.000000,511.000000) scale(0.100000,-0.100000)"
     id="g894"
     style="fill:#808080;fill-opacity:1"><path
       d="M4581.8,3430.1c-733.7-99.7-1411.2-447.4-1945.5-999.6c-444.8-457.6-726-979.1-866.6-1595.3l-40.9-179L1537,546.4c-311.9-179-700.5-444.8-905-621.2C-101.7-706.3-73.6-1312.2,698.5-1578c549.6-189.2,1577.4-179,2789.2,25.6C5420.3-1222.7,7652.1-417.4,8879.3,393c455.1,301.7,802.8,639.1,933.1,905c232.7,475.5-5.1,861.5-628.9,1020c-342.6,86.9-889.7,112.5-1406.1,66.5l-253.1-23l-196.8,186.6c-434.6,416.7-1004.7,713.3-1633.6,848.8C5463.8,3445.5,4834.9,3465.9,4581.8,3430.1z M5530.3,3010.9c613.6-107.4,1158.1-391.1,1595.2-830.9c393.7-393.7,692.8-943.4,792.5-1452.1c17.9-86.9,38.3-158.5,46-158.5c5.1,0,92.1,43.5,189.2,94.6c204.5,112.5,199.4,79.2,58.8,511.3c-86.9,258.2-194.3,493.4-311.9,680c-51.1,81.8-56.3,104.8-28.1,122.7c48.6,30.7,720.9,28.1,953.6-5.1c434.6-58.8,677.5-186.6,677.5-355.3c0-222.4-273.6-511.3-833.4-876.9C7117.8-276.8,4295.5-1163.9,2173.6-1301.9c-991.9-63.9-1669.4,86.9-1669.4,373.2c0,191.7,342.6,549.6,848.8,884.6l314.4,209.6l20.4-202c33.2-340,89.5-649.4,158.5-866.7l63.9-207.1l209.6,12.8c117.6,5.1,214.7,12.8,219.8,17.9c2.5,2.6-12.8,48.6-35.8,104.8c-23,53.7-69,196.8-102.3,317C1923,347,2211.9,1433.5,2958.4,2182.6C3635.9,2862.6,4599.7,3171.9,5530.3,3010.9z"
       id="path890"
       style="stroke:#0000ff;stroke-opacity:1;fill:#808080;fill-opacity:1" /><path
       d="M8155.8-256.3c-201.9-99.7-209.6-107.4-227.5-207.1c-30.7-199.4-145.7-516.4-271-764.4c-488.3-953.6-1421.4-1551.8-2490-1595.3c-815.5-35.8-1546.7,235.2-2150,795.1l-181.5,168.7l-225-25.6c-122.7-12.8-227.5-30.7-235.2-35.8c-28.1-30.7,605.9-626.3,800.2-754.2c368.1-240.3,769.5-406.5,1214.3-503.7c301.7-66.5,999.6-66.5,1298.7,0c1199,258.2,2144.9,1089.1,2520.7,2213.9c86.9,258.2,181.5,708.2,163.6,777.2C8368-161.7,8306.6-182.2,8155.8-256.3z"
       id="path892"
       style="fill:#808080;fill-opacity:1" /></g></g>
<g
   style="fill:#ffffff;fill-opacity:1;stroke-width:11.3874"
   id="g2088"
   transform="matrix(0.08399562,0,0,0.09181051,373.47523,458.95104)"><g
     style="fill:#ffffff;fill-opacity:1;stroke-width:11.3874"
     id="g2086"
     transform="matrix(0.1,0,0,-0.1,0,511)"><path
       style="fill:#ffffff;fill-opacity:1;stroke-width:11.3874"
       id="path2082"
       d="M 9299.5,5005.3 C 8910.4,4965.4 8453.5,4863.6 8050.5,4726 6606,4231.2 5217.4,3084 4441.3,1745.2 c -47.9,-81.8 -89.8,-153.6 -93.8,-157.6 -2,-4 -65.8,45.9 -139.7,111.7 -1031.5,905.9 -2426.1,1538.3 -3527.4,1596.2 -217.5,10 -219.5,10 -267.3,-39.9 -61.9,-67.8 -73.8,-143.7 -103.8,-682.3 -25.9,-486.8 -16,-1290.9 22,-1715.8 143.6,-1642.1 594.5,-2949 1332.7,-3862.8 171.6,-213.5 540.7,-562.6 764.2,-722.2 213.5,-151.7 708.3,-405 945.7,-482.8 263.4,-85.8 540.7,-147.7 830,-183.6 265.4,-31.9 273.3,-31.9 339.2,6 91.8,53.9 135.7,173.6 95.8,257.4 -47.9,97.8 -113.7,129.7 -317.2,151.6 -1149.4,125.7 -2015.3,678.4 -2641.8,1691.9 -504.8,816 -822,1947.3 -931.7,3314 -25.9,331.2 -31.9,1324.8 -8,1634 l 14,205.5 113.7,-14 C 1418.6,2786.7 2158.8,2531.3 2747.4,2206.1 3312,1892.9 3739,1569.6 4233.8,1076.8 4738.6,576 5043.8,177 5341.1,-369.7 c 417,-770.1 598.5,-1454.5 604.5,-2284.5 2,-345.2 6,-409 37.9,-454.9 61.9,-95.8 231.5,-103.8 319.2,-16 51.9,49.9 71.8,169.6 73.8,421 v 209.5 l 135.7,37.9 c 670.4,189.6 1332.8,624.5 1801.6,1185.1 873.9,1043.5 1338.8,2563.8 1388.7,4553 12,468.9 -18,1294.9 -53.9,1522.3 -25.9,169.7 -119.7,223.6 -349.1,201.6 z M 9259.6,4305 c 21.9,-373.1 -2,-1502.4 -39.9,-1851.5 -235.4,-2222.6 -985.6,-3637.2 -2266.5,-4279.6 -143.7,-73.8 -564.6,-239.4 -604.6,-239.4 -4,0 -15.9,77.8 -29.9,175.6 -57.9,385.1 -235.4,967.7 -419,1366.7 -45.9,95.8 -81.8,183.6 -81.8,193.5 0,12 67.8,129.7 151.6,265.4 660.4,1055.5 1666,2354.3 2464,3176.3 137.7,143.7 261.4,279.3 275.4,303.3 39.9,75.8 25.9,159.6 -35.9,229.4 -49.9,55.9 -71.8,65.8 -149.6,65.8 -87.8,0 -95.8,-6 -293.3,-199.5 C 7525.8,2814.7 6614,1675.4 5887.8,588 5724.2,340.6 5580.5,137.1 5572.6,133.1 c -10,-4 -87.8,97.8 -175.6,227.4 -183.5,269.4 -391,530.7 -592.5,754.2 -79.8,85.8 -139.7,161.6 -135.7,169.6 4,6 49.9,87.8 103.8,181.6 788.1,1390.6 2198.7,2517.9 3679.1,2944.9 247.4,69.8 606.5,145.6 710.3,145.6 l 83.8,2 z"
       inkscape:connector-curvature="0" /><path
       style="fill:#ffffff;fill-opacity:1;stroke-width:11.3874"
       id="path2084"
       d="m 1416.6,1984.7 c -71.8,-27.9 -127.7,-117.7 -127.7,-203.5 0,-71.8 16,-95.8 195.5,-281.3 325.2,-341.2 606.5,-656.4 915.8,-1027.5 1474.4,-1763.8 2551.8,-3585.4 2899,-4902.2 35.9,-131.7 75.8,-259.4 91.8,-283.3 16,-23.9 61.9,-53.9 105.7,-67.8 101.8,-29.9 205.5,16 251.4,113.7 29.9,63.8 29.9,77.8 -8,233.4 -125.7,530.7 -423,1262.9 -784.1,1937.3 -726.2,1354.7 -1875.5,2924.9 -3034.6,4150 -315.3,331.2 -387.1,379 -504.8,331.2 z"
       inkscape:connector-curvature="0" /></g></g><text
   xml:space="preserve"
   style="font-style:normal;font-weight:normal;font-size:120px;line-height:1.25;font-family:sans-serif;fill:#808080;fill-opacity:1;stroke:#000000;stroke-opacity:1;"
   x="275.42374"
   y="381.35596"
   id="text846"><tspan
     sodipodi:role="line"
     id="tspan844"
     x="275.42374"
     y="381.35596"
     style="font-style:normal;font-variant:normal;font-weight:normal;font-stretch:normal;font-size:120px;font-family:monospace;-inkscape-font-specification:monospace;fill:#808080;stroke:#000000;stroke-opacity:1;fill-opacity:1;">Github </tspan><tspan
     sodipodi:role="line"
     x="275.42374"
     y="534.06226"
     style="font-style:normal;font-variant:normal;font-weight:normal;font-stretch:normal;font-size:120px;font-family:monospace;-inkscape-font-specification:monospace;fill:#808080;stroke:#000000;stroke-opacity:1;fill-opacity:1;"
     id="tspan848">Page</tspan></text></svg>
