<?xml version="1.0" standalone="no"?>
<!DOCTYPE svg PUBLIC "-//W3C//DTD SVG 20010904//EN"
 "http://www.w3.org/TR/2001/REC-SVG-20010904/DTD/svg10.dtd">
<svg version="1.0" xmlns="http://www.w3.org/2000/svg"
 width="700.000000pt" height="700.000000pt" viewBox="0 0 700.000000 700.000000"
 preserveAspectRatio="xMidYMid meet">
<metadata>
Created by potrace 1.11, written by Peter Selinger 2001-2013
</metadata>
<g transform="translate(0.000000,700.000000) scale(0.100000,-0.100000)"
fill="#000000" stroke="none">
<path d="M3298 5835 c-2 -2 -32 -5 -68 -9 -36 -3 -76 -8 -90 -11 -14 -3 -41
-8 -60 -11 -180 -31 -452 -127 -615 -217 -38 -21 -78 -41 -87 -44 -10 -3 -18
-9 -18 -14 0 -5 -5 -9 -11 -9 -26 0 -267 -173 -368 -264 -381 -345 -611 -728
-736 -1226 -39 -155 -37 -152 -125 -199 -62 -33 -259 -154 -355 -220 -260
-176 -484 -374 -572 -506 -233 -349 -127 -637 290 -784 46 -16 99 -32 119 -35
19 -3 41 -8 49 -10 8 -3 31 -8 52 -11 70 -10 112 -16 137 -21 137 -24 627 -23
890 1 74 7 163 16 200 20 19 3 60 7 90 10 60 7 99 12 158 21 20 3 53 7 72 10
44 5 88 12 116 18 12 2 39 7 60 10 421 65 1054 220 1594 391 293 92 833 285
855 306 5 5 15 9 23 9 11 0 279 113 456 192 104 46 540 270 636 326 487 285
818 593 908 845 21 58 26 91 27 167 0 86 -3 101 -31 160 -57 117 -166 209
-325 270 -88 34 -215 66 -299 76 -30 3 -57 8 -60 9 -29 17 -548 26 -710 12
-41 -3 -111 -9 -155 -12 l-80 -6 -80 76 c-119 113 -228 204 -336 279 -53 36
-99 66 -103 66 -3 0 -29 15 -58 33 -150 95 -432 206 -648 256 -137 32 -251 42
-532 45 -115 2 -209 2 -210 1z m477 -289 c17 -3 44 -7 60 -10 17 -3 42 -7 58
-10 15 -4 37 -8 50 -10 220 -39 499 -157 717 -302 151 -100 184 -127 325 -269
264 -263 459 -603 539 -940 37 -155 46 -186 54 -183 67 30 191 99 214 121 28
25 30 32 25 71 -7 48 -67 237 -117 366 -30 78 -103 225 -176 357 -19 34 -26
55 -19 62 18 17 87 22 280 21 255 -1 362 -8 475 -30 30 -6 66 -13 80 -16 93
-17 221 -77 267 -125 162 -165 -162 -507 -842 -890 -116 -65 -558 -289 -570
-289 -3 0 -40 -16 -82 -36 -42 -19 -100 -44 -127 -56 -28 -11 -70 -29 -93 -39
-24 -11 -45 -19 -47 -19 -2 0 -21 -8 -42 -17 -22 -9 -41 -17 -44 -18 -3 0 -52
-19 -110 -41 -58 -23 -159 -61 -225 -84 -66 -23 -129 -46 -140 -50 -52 -22
-341 -114 -530 -169 -115 -34 -223 -65 -240 -71 -53 -16 -377 -99 -475 -120
-52 -12 -102 -23 -110 -25 -27 -7 -404 -84 -435 -89 -16 -3 -70 -12 -120 -21
-128 -22 -135 -23 -185 -30 -25 -3 -58 -8 -73 -10 -43 -6 -97 -13 -157 -20
-30 -4 -66 -8 -80 -10 -35 -5 -146 -16 -200 -20 -25 -2 -94 -7 -155 -11 -60
-5 -195 -8 -300 -8 -252 0 -400 12 -542 45 -27 6 -55 12 -63 14 -75 16 -188
74 -227 116 -87 95 -21 235 217 452 111 102 541 409 554 396 4 -4 12 -67 21
-174 3 -33 7 -71 10 -85 2 -14 7 -45 10 -70 5 -39 15 -101 32 -190 13 -72 89
-345 100 -359 3 -4 92 -2 148 4 17 2 56 3 88 4 44 1 57 4 57 16 0 9 -18 68
-39 133 -37 111 -74 242 -85 307 -3 17 -8 40 -10 52 -14 70 -21 179 -21 338 0
175 4 231 24 345 24 134 36 177 93 340 201 573 662 1036 1248 1249 137 50 336
95 470 107 36 4 67 8 69 10 5 5 359 -4 396 -10z"/>
<path d="M2683 4972 c-32 -3 -33 -4 -33 -53 l0 -49 43 0 43 0 0 50 c-1 54 -4
57 -53 52z"/>
<path d="M3525 4971 c-2 -4 -4 -149 -4 -323 0 -346 -3 -333 58 -319 24 6 24 7
25 167 2 135 5 165 19 188 33 50 99 60 143 22 l28 -23 0 -177 1 -176 43 0 44
0 -4 188 c-3 182 -4 190 -28 225 -51 74 -153 83 -221 20 l-26 -24 0 111 c0 60
-2 112 -5 115 -8 8 -68 13 -73 6z"/>
<path d="M4568 4972 l-38 -3 0 -320 0 -319 44 0 c41 0 44 2 38 22 -5 22 -4 22
27 -5 30 -25 44 -29 86 -29 58 0 75 5 112 37 29 24 47 51 58 85 20 59 22 167
6 228 -20 73 -84 130 -156 137 -28 3 -93 -19 -112 -37 l-21 -20 0 111 c0 62
-1 113 -3 114 -2 1 -21 1 -41 -1z m209 -257 c50 -35 65 -193 27 -272 -23 -47
-72 -68 -118 -49 -80 32 -100 236 -30 311 27 29 86 34 121 10z"/>
<path d="M2108 4931 c-92 -44 -141 -146 -140 -296 1 -163 62 -277 162 -304 88
-25 160 -17 220 23 l35 23 0 134 0 134 -88 3 -87 3 0 -41 0 -40 45 0 45 0 -1
-79 c-1 -73 -3 -80 -26 -90 -68 -31 -153 3 -187 74 -23 48 -31 206 -14 277 29
124 154 169 255 92 17 -13 33 -24 35 -24 2 0 3 21 2 46 -2 54 -18 69 -89 84
-68 14 -108 9 -167 -19z"/>
<path d="M3121 4922 c-6 -2 -11 -29 -11 -66 l0 -63 -57 1 -58 1 -3 -33 -3 -32
60 0 61 0 0 -147 c1 -218 20 -250 155 -253 101 -3 102 -3 103 30 0 17 -2 30
-6 31 -4 1 -36 2 -71 4 -35 2 -67 7 -72 12 -18 18 -25 71 -24 193 l0 125 85 5
c80 5 85 6 88 29 5 33 -5 36 -92 35 -42 0 -77 3 -77 8 -1 4 -3 31 -4 58 -1 28
-3 53 -4 58 -1 7 -50 11 -70 4z"/>
<path d="M2554 4792 c-16 -2 -21 -10 -22 -32 -1 -30 -1 -30 59 -30 l59 0 0
-168 0 -169 -72 1 -73 1 -3 -33 c-4 -37 -26 -33 213 -33 69 0 136 0 149 0 21
1 24 5 22 34 l-3 32 -70 -2 c-59 -1 -72 1 -75 15 -2 9 -3 99 -3 200 0 100 -2
182 -5 183 -13 3 -157 4 -176 1z"/>
<path d="M4333 4792 l-33 -3 0 -151 c0 -133 -3 -157 -21 -195 -17 -35 -27 -44
-56 -49 -47 -9 -84 5 -100 36 -9 17 -13 78 -13 193 l0 167 -43 0 -43 0 1 -179
c2 -194 12 -234 65 -273 50 -36 135 -28 183 16 l27 25 0 -24 c0 -14 6 -25 13
-26 6 0 24 -2 40 -3 15 -1 27 1 28 4 7 35 2 453 -6 459 -5 3 -25 5 -42 3z"/>
<path d="M2009 3882 c-6 -76 -4 -589 3 -598 7 -10 59 -11 76 -1 5 4 8 58 7
122 -1 97 2 115 15 116 169 6 213 18 256 74 37 49 43 145 12 205 -38 75 -85
93 -240 97 -116 2 -128 1 -129 -15z m266 -92 c50 -50 31 -157 -31 -180 -14 -6
-53 -10 -87 -10 l-62 0 0 111 0 111 77 -4 c67 -3 81 -7 103 -28z"/>
<path d="M3086 3759 c-80 -33 -129 -71 -185 -149 -31 -42 -31 -43 -31 -15 0
49 -36 109 -81 134 -47 27 -158 31 -224 9 -32 -11 -40 -19 -46 -45 -9 -46 1
-56 39 -37 68 34 187 30 210 -6 12 -20 12 -21 -17 -6 -40 21 -111 32 -112 17
-1 -6 -3 -15 -4 -21 -1 -5 -3 -23 -4 -40 -1 -25 -6 -31 -40 -40 -41 -11 -100
-67 -102 -98 -1 -9 -3 -28 -4 -41 -9 -94 80 -169 184 -153 26 4 38 -1 65 -27
34 -33 122 -72 144 -64 24 9 11 21 -33 32 -26 7 -60 25 -80 44 l-34 32 30 23
29 24 0 -26 c0 -14 6 -26 13 -27 6 0 20 -2 30 -4 9 -2 24 3 32 11 12 12 18 4
42 -61 15 -41 32 -75 37 -75 16 0 -3 70 -39 147 -32 68 -36 82 -33 147 l3 71
33 -50 c35 -53 49 -96 55 -160 3 -43 20 -59 25 -25 5 34 48 44 86 21 65 -39
144 -35 192 10 l22 21 -3 -43 c-4 -56 -19 -95 -42 -107 -35 -19 -91 -20 -144
-2 -30 10 -55 17 -57 15 -9 -9 -7 -67 2 -74 17 -14 73 -23 133 -22 76 1 133
30 164 84 23 41 24 48 27 298 l3 257 -29 4 c-40 6 -52 0 -52 -24 0 -20 -1 -20
-18 -5 -10 9 -34 23 -55 32 -20 8 -37 20 -37 25 0 16 -40 11 -94 -11z m-43
-61 c-26 -28 -53 -92 -53 -124 0 -24 -37 -104 -49 -104 -3 0 -16 16 -29 36
l-23 35 19 33 c28 48 62 85 106 117 47 35 57 37 29 7z m112 -70 c-5 -71 -22
-142 -44 -185 -23 -45 -31 -33 -36 52 -5 75 16 148 48 170 33 23 36 19 32 -37z
m85 34 c61 -49 58 -249 -4 -301 -21 -18 -67 -20 -98 -4 -33 16 -34 22 -8 65
23 40 49 137 54 204 2 27 4 50 5 52 4 8 32 -1 51 -16z m-500 -44 c24 -13 43
-27 42 -33 -2 -12 -41 -14 -63 -4 -9 5 -20 5 -24 1 -21 -22 -44 -2 -37 34 5
30 25 31 82 2z m23 -140 c14 -19 18 -34 13 -53 -8 -31 -61 -89 -75 -81 -10 6
-30 76 -36 127 l-4 36 41 -1 c32 -1 45 -7 61 -28z m-125 16 c-6 -5 14 -101 27
-136 6 -15 2 -18 -22 -18 -44 0 -64 20 -70 72 -5 40 -2 47 22 66 24 19 58 32
43 16z m377 -123 c8 -17 14 -31 11 -31 -2 0 -11 -3 -20 -6 -23 -9 -52 96 -35
128 12 22 13 21 20 -19 4 -23 15 -55 24 -72z"/>
<path d="M3647 3746 c-86 -25 -145 -105 -154 -207 -15 -163 76 -270 232 -272
57 0 127 16 151 34 14 11 17 79 3 79 -5 0 -23 -7 -39 -15 -45 -23 -140 -33
-175 -19 -45 18 -76 57 -82 103 l-6 40 164 3 164 3 -3 54 c-6 102 -62 183
-134 196 -73 12 -84 12 -121 1z m132 -93 c18 -17 33 -43 36 -63 l6 -35 -118 0
c-65 0 -117 3 -115 8 1 4 2 16 2 28 0 12 15 36 34 55 29 29 41 34 80 34 36 0
52 -6 75 -27z"/>
<path d="M5820 3293 c-41 -14 -218 -103 -236 -120 -14 -12 -27 -45 -39 -98
-112 -510 -430 -985 -852 -1272 -445 -303 -983 -418 -1533 -327 -271 45 -557
162 -786 320 -101 69 -189 142 -344 284 -44 40 -46 41 -105 35 -33 -3 -71 -7
-85 -9 -14 -2 -52 -8 -85 -12 -33 -4 -63 -8 -67 -10 -5 -1 -13 -2 -18 -3 -17
-2 -1 -23 71 -98 142 -147 331 -319 445 -403 215 -161 573 -315 884 -380 202
-42 639 -47 865 -10 250 41 586 171 827 321 208 128 414 306 561 483 27 34 53
63 56 66 3 3 15 19 27 35 11 17 41 60 67 97 26 38 47 70 47 72 0 2 19 35 42
72 136 226 273 638 295 892 6 75 4 79 -37 65z"/>
</g>
</svg>
