<?xml version="1.0" standalone="no"?>
<!DOCTYPE svg PUBLIC "-//W3C//DTD SVG 20010904//EN"
 "http://www.w3.org/TR/2001/REC-SVG-20010904/DTD/svg10.dtd">
<svg version="1.0" xmlns="http://www.w3.org/2000/svg"
 width="700.000000pt" height="700.000000pt" viewBox="0 0 700.000000 700.000000"
 preserveAspectRatio="xMidYMid meet">
<metadata>
Created by potrace 1.11, written by Peter Selinger 2001-2013
</metadata>
<g transform="translate(0.000000,700.000000) scale(0.100000,-0.100000)"
fill="#000000" stroke="none">
<path d="M3189 5825 c-737 -101 -1427 -606 -1768 -1296 -74 -148 -154 -379
-191 -544 l-22 -101 -117 -66 c-131 -75 -377 -235 -495 -323 -279 -206 -455
-414 -510 -604 -20 -68 -21 -173 -2 -236 58 -190 289 -335 630 -394 322 -56
800 -51 1332 14 1261 155 2905 684 3897 1254 565 325 921 667 978 939 18 86 8
197 -24 266 -59 129 -216 241 -422 301 -229 67 -649 92 -1019 61 l-189 -16
-96 92 c-246 233 -487 390 -776 506 -127 52 -309 106 -416 126 -189 35 -605
46 -790 21z m481 -275 c752 -57 1394 -499 1721 -1185 66 -138 105 -252 144
-415 15 -63 31 -119 35 -123 9 -11 179 75 222 111 28 24 30 29 25 76 -13 123
-155 487 -258 664 -33 57 -58 110 -55 117 7 20 155 29 391 22 233 -7 322 -17
464 -53 333 -84 374 -232 137 -483 -147 -155 -460 -372 -811 -563 -1128 -614
-2806 -1102 -4115 -1198 -239 -18 -671 -8 -814 19 -326 61 -448 162 -377 316
45 99 210 270 396 411 75 57 380 264 388 264 3 0 7 -39 11 -87 17 -213 58
-452 108 -623 17 -58 34 -119 39 -137 6 -18 13 -34 17 -37 8 -4 295 14 301 19
1 2 -13 48 -32 103 -152 427 -175 825 -72 1231 208 821 916 1446 1745 1540
200 23 220 24 390 11z"/>
<path d="M2650 4926 l0 -56 46 0 45 0 -3 53 -3 52 -42 3 -43 3 0 -55z"/>
<path d="M3520 4650 l0 -331 43 3 42 3 5 170 c3 94 9 178 14 188 11 22 57 47
89 47 14 0 35 -9 48 -19 23 -19 24 -25 29 -203 l5 -183 43 -3 44 -3 -4 193
c-3 172 -5 197 -23 228 -41 70 -133 88 -211 39 l-33 -20 -3 108 -3 108 -42 3
-43 3 0 -331z"/>
<path d="M4530 4651 l0 -331 41 0 c32 0 42 4 46 20 5 19 6 18 35 -3 22 -16 44
-22 81 -22 73 0 118 30 154 102 23 49 27 69 27 143 0 155 -65 243 -180 245
-39 0 -60 -6 -83 -23 l-30 -22 -3 107 -3 108 -42 3 -43 3 0 -330z m233 68 c38
-17 57 -69 57 -159 0 -90 -19 -142 -57 -159 -85 -39 -143 25 -143 159 0 134
58 198 143 159z"/>
<path d="M2132 4947 c-88 -33 -145 -116 -163 -240 -18 -124 12 -257 75 -325
75 -83 242 -90 329 -14 15 13 17 34 17 149 l0 133 -90 0 -90 0 0 -40 0 -40 45
0 46 0 -3 -77 c-3 -74 -4 -78 -31 -91 -42 -20 -113 -7 -148 27 -37 38 -53 99
-53 206 0 50 6 110 13 134 31 108 145 144 245 76 20 -14 39 -25 42 -25 3 0 4
21 2 48 -3 44 -6 48 -43 67 -48 23 -147 30 -193 12z"/>
<path d="M3110 4866 l0 -66 -60 0 -60 0 0 -40 0 -40 60 0 60 0 0 -145 c0 -218
19 -245 174 -248 l81 -2 3 38 3 37 -70 0 c-101 0 -101 1 -101 175 l0 144 83 3
82 3 3 38 3 37 -85 0 -85 0 -3 63 -3 62 -42 3 -43 3 0 -65z"/>
<path d="M2532 4763 l3 -38 58 -3 57 -3 0 -159 0 -160 -76 0 -75 0 3 -37 3
-38 190 0 190 0 0 35 0 35 -72 3 -73 3 0 199 0 200 -106 0 -105 0 3 -37z"/>
<path d="M4027 4793 c-11 -11 -8 -308 4 -363 14 -65 54 -107 112 -115 46 -7
105 11 139 42 17 15 18 14 18 -11 0 -26 2 -27 43 -24 l42 3 0 235 0 235 -42 3
-41 3 -4 -168 c-2 -142 -6 -173 -21 -196 -23 -35 -62 -50 -105 -42 -53 10 -62
45 -62 240 l0 165 -38 0 c-21 0 -42 -3 -45 -7z"/>
<path d="M2002 3588 l3 -313 45 0 45 0 3 123 3 122 67 0 c156 0 232 62 232
190 0 64 -18 109 -59 143 -45 37 -90 47 -224 47 l-117 0 2 -312z m243 218 c41
-17 55 -42 55 -96 0 -23 -5 -50 -11 -62 -15 -28 -70 -48 -134 -48 l-55 0 0
110 0 110 55 0 c31 0 71 -6 90 -14z"/>
<path d="M2605 3750 c-85 -18 -95 -26 -95 -70 0 -22 3 -40 8 -40 4 0 32 9 62
21 103 39 200 12 200 -56 0 -21 -5 -23 -83 -27 -115 -8 -171 -33 -197 -90 -48
-106 4 -206 116 -224 49 -7 115 9 139 36 24 27 35 25 35 -5 0 -23 4 -25 41
-25 l40 0 -3 194 c-3 178 -5 197 -24 222 -42 57 -145 85 -239 64z m174 -295
c-15 -80 -53 -115 -125 -115 -64 0 -103 65 -73 121 15 29 44 38 130 38 l76 1
-8 -45z"/>
<path d="M3119 3751 c-49 -16 -79 -43 -106 -99 -23 -48 -28 -70 -28 -137 0
-119 36 -193 109 -226 57 -26 106 -24 150 6 l36 24 0 -39 c0 -77 -33 -110
-109 -110 -21 0 -58 7 -81 15 -59 21 -62 20 -58 -27 3 -37 7 -43 33 -50 17 -5
62 -10 100 -10 87 -2 136 19 173 75 l27 40 0 266 0 266 -38 3 c-32 3 -39 0
-44 -17 l-5 -20 -28 20 c-30 23 -92 32 -131 20z m119 -93 c31 -34 42 -72 42
-149 0 -115 -29 -159 -104 -159 -39 0 -70 24 -86 66 -16 40 -12 171 5 204 32
61 103 80 143 38z"/>
<path d="M3639 3746 c-109 -39 -159 -133 -146 -277 10 -111 70 -178 180 -201
46 -10 66 -9 133 8 l79 19 3 47 3 47 -46 -20 c-65 -29 -141 -35 -187 -16 -42
18 -67 50 -75 101 l-6 36 168 0 168 0 -7 62 c-9 78 -25 116 -65 153 -54 52
-130 67 -202 41z m134 -86 c23 -18 53 -87 43 -97 -2 -2 -55 -2 -119 -1 l-116
3 19 42 c31 69 118 96 173 53z"/>
<path d="M5704 3241 c-66 -32 -124 -64 -131 -72 -6 -8 -24 -68 -41 -134 -234
-947 -1042 -1585 -2007 -1585 -563 0 -1049 202 -1472 613 l-62 60 -73 -7
c-113 -10 -235 -28 -249 -37 -9 -5 2 -24 39 -66 53 -62 311 -303 420 -392 232
-192 676 -383 1017 -438 126 -21 617 -24 740 -5 263 41 572 153 824 299 557
323 943 845 1101 1487 33 137 61 303 53 323 -9 23 -37 15 -159 -46z"/>
</g>
</svg>
